<svg xmlns="http://www.w3.org/2000/svg" xml:space="preserve" viewBox="0 0 512 512">
  <path fill="#ECFDF5" d="M512 256.006C512 397.402 397.394 512.004 256.004 512 114.606 512.004 0 397.402 0 256.006-.007 114.61 114.606 0 256.004 0 397.394 0 512 114.614 512 256.006z"/>
  <path fill="#059669" d="M512 256.006c0-.484-116.626-118.191-117.135-118.675-20.671-20.161-49.423-38.084-86.55-38.084-3.362 0-6.307 2.26-7.203 5.498-.437 1.604-11.237 39.302-45.062 39.302-1.439 0-45.871-41.472-46.427-41.878-1.382-1.775-3.487-2.922-5.841-2.922-83.132 0-124.548 89.767-126.276 93.588a7.478 7.478 0 0 0 1.924 8.718l.875.756c.207.23 71.211 71.294 71.211 71.294V405.38c0 2.442 1.249 4.508 3.062 5.871.425.565 94.61 100.682 99.186 100.721.748.006 1.491.028 2.241.028C397.394 512.004 512 397.402 512 256.006z"/>
  <path fill="#34D399" d="M434.492 192.807c-1.721-3.82-43.154-93.561-126.246-93.561-3.36 0-6.305 2.26-7.202 5.497-.437 1.603-11.233 39.291-45.05 39.291s-44.604-37.687-45.048-39.273a7.467 7.467 0 0 0-7.202-5.515c-83.107 0-124.512 89.741-126.239 93.561a7.475 7.475 0 0 0 1.924 8.715l52.251 45.195a7.521 7.521 0 0 0 5.679 1.775 7.444 7.444 0 0 0 5.175-2.941l8.959-11.943V405.29a7.463 7.463 0 0 0 7.465 7.465h194.076a7.463 7.463 0 0 0 7.465-7.465V233.606l8.959 11.943a7.45 7.45 0 0 0 5.168 2.941 7.427 7.427 0 0 0 5.685-1.775l52.266-45.195a7.461 7.461 0 0 0 1.915-8.713zm-57.894 37.385-17.597-23.457a7.465 7.465 0 0 0-13.435 4.479v186.61H166.42v-186.61a7.463 7.463 0 0 0-5.103-7.082 7.486 7.486 0 0 0-8.332 2.603l-17.589 23.457-41.798-36.156c9.36-17.568 45.056-76.347 104.779-79.711 6.765 18.013 25.003 44.637 57.616 44.637s50.851-26.625 57.616-44.637c59.723 3.364 95.427 62.143 104.794 79.711l-41.805 36.156z"/>
</svg>